<?xml version="1.0" standalone="no"?>
<!DOCTYPE svg PUBLIC "-//W3C//DTD SVG 20010904//EN"
 "http://www.w3.org/TR/2001/REC-SVG-20010904/DTD/svg10.dtd">
<svg version="1.0" xmlns="http://www.w3.org/2000/svg"
 width="2135.000000pt" height="2135.000000pt" viewBox="0 0 2135.000000 2135.000000"
 preserveAspectRatio="xMidYMid meet">
<metadata>
Created by potrace 1.11, written by Peter Selinger 2001-2013
</metadata>
<g transform="translate(0.000000,2135.000000) scale(0.100000,-0.100000)"
fill="#000000" stroke="none">
<path d="M10489 17106 c-2 -2 -63 -7 -136 -10 -72 -4 -140 -8 -150 -10 -10 -2
-53 -7 -96 -11 -43 -3 -88 -8 -100 -10 -12 -2 -44 -6 -72 -10 -888 -110 -1726
-434 -2357 -912 -812 -614 -1305 -1494 -1375 -2453 -14 -189 -7 -619 11 -718
2 -9 7 -42 11 -72 53 -423 184 -804 398 -1160 53 -89 220 -316 282 -385 282
-311 613 -567 1015 -787 557 -305 1206 -540 2280 -828 227 -61 452 -120 472
-124 110 -23 879 -234 1113 -306 920 -283 1451 -582 1759 -990 146 -193 244
-437 273 -678 10 -86 10 -336 0 -427 -31 -270 -141 -554 -304 -788 -73 -104
-74 -106 -183 -220 -234 -244 -530 -430 -895 -560 -95 -34 -284 -92 -329 -101
-12 -3 -41 -9 -66 -14 -105 -23 -259 -51 -305 -57 -27 -4 -61 -8 -75 -10 -14
-2 -56 -7 -95 -11 -38 -3 -77 -8 -85 -9 -126 -24 -793 -24 -975 -1 -16 2 -64
7 -105 11 -71 6 -366 48 -420 60 -14 3 -59 12 -100 20 -81 15 -346 80 -395 95
-16 6 -75 24 -130 41 -713 220 -1410 612 -1994 1124 -79 69 -183 169 -323 310
-116 117 -150 147 -158 135 -9 -15 -153 -210 -375 -509 -77 -104 -183 -247
-235 -318 -194 -263 -414 -560 -450 -607 l-38 -50 46 -53 c62 -69 286 -290
387 -380 566 -504 1231 -904 1941 -1166 399 -148 811 -261 1214 -333 14 -2 48
-9 75 -14 50 -9 230 -37 295 -45 19 -2 51 -6 70 -9 19 -2 62 -7 95 -11 33 -3
76 -8 95 -10 97 -11 250 -23 425 -32 271 -15 1001 -8 1155 11 14 2 66 7 115
11 104 8 99 7 295 31 185 22 472 75 705 129 545 127 1097 360 1515 638 98 65
273 193 303 220 6 7 39 34 72 61 87 72 330 317 411 415 285 347 497 734 633
1156 39 120 110 389 116 443 3 22 24 148 31 186 2 10 6 44 9 75 4 31 8 72 11
91 19 157 25 525 11 730 -41 640 -232 1195 -575 1674 -124 172 -345 409 -527
563 -551 468 -1352 851 -2460 1177 -104 31 -219 65 -255 76 -127 37 -560 154
-840 226 -604 155 -868 228 -1145 315 -888 280 -1391 584 -1635 988 -74 125
-123 254 -155 416 -13 64 -13 342 1 437 67 482 335 889 774 1176 61 40 63 41
170 99 193 105 533 223 740 258 19 3 42 8 50 10 8 2 38 7 65 11 28 3 52 8 55
9 3 2 37 6 75 10 39 4 78 9 87 10 128 24 687 24 918 0 19 -2 64 -6 100 -10
131 -12 264 -31 494 -71 284 -48 800 -203 1059 -318 18 -8 61 -27 97 -42 275
-120 647 -338 885 -517 206 -156 310 -245 492 -422 65 -62 120 -112 124 -110
3 2 65 80 137 172 142 182 805 1028 825 1053 79 98 157 201 157 208 0 9 -150
156 -261 257 -230 209 -518 424 -822 613 -82 51 -150 92 -152 92 -2 0 -28 14
-57 31 -95 56 -419 216 -566 278 -351 149 -831 301 -1174 370 -145 30 -268 52
-378 70 -134 21 -147 23 -327 46 -80 10 -242 25 -333 31 -52 3 -115 8 -140 11
-53 5 -816 13 -821 9z"/>
</g>
</svg>
